<mxfile host="app.diagrams.net" modified="2024-03-05T14:38:13.483Z" agent="Mozilla/5.0 (Windows NT 10.0; Win64; x64) AppleWebKit/537.36 (KHTML, like Gecko) Chrome/121.0.0.0 Safari/537.36 OPR/107.0.0.0" etag="fdS66na_oYYVIVlya4AH" version="24.0.1" type="github">
  <diagram name="Страница — 1" id="CZmfLBO6WHf6ZvAAMJ1s">
    <mxGraphModel dx="1393" dy="807" grid="1" gridSize="10" guides="1" tooltips="1" connect="1" arrows="1" fold="1" page="1" pageScale="1" pageWidth="827" pageHeight="1169" math="0" shadow="0">
      <root>
        <mxCell id="0" />
        <mxCell id="1" parent="0" />
        <mxCell id="0tlU2G7sLi1nAekYESAy-1" value="ввод данных осуществляется через&amp;nbsp;&amp;nbsp;Dk = int(input(&quot;Введите размер ковра: &quot;))" style="rounded=0;whiteSpace=wrap;html=1;" vertex="1" parent="1">
          <mxGeometry x="143" y="60" width="190" height="95" as="geometry" />
        </mxCell>
        <mxCell id="0tlU2G7sLi1nAekYESAy-2" value="в цикл row вводятся условия для символа #&amp;nbsp;" style="rounded=0;whiteSpace=wrap;html=1;" vertex="1" parent="1">
          <mxGeometry x="143" y="225" width="190" height="95" as="geometry" />
        </mxCell>
        <mxCell id="0tlU2G7sLi1nAekYESAy-3" value="or i in [0, Dk - 1]&lt;div&gt;это расположение решетки&amp;nbsp;&lt;/div&gt;" style="rounded=0;whiteSpace=wrap;html=1;" vertex="1" parent="1">
          <mxGeometry x="493" y="400" width="190" height="95" as="geometry" />
        </mxCell>
        <mxCell id="0tlU2G7sLi1nAekYESAy-4" value="or j in [0, Dk - 1]] расположение пробела" style="rounded=0;whiteSpace=wrap;html=1;" vertex="1" parent="1">
          <mxGeometry x="493" y="225" width="190" height="95" as="geometry" />
        </mxCell>
        <mxCell id="0tlU2G7sLi1nAekYESAy-5" value="Диагональ проводящаяся через центр&amp;nbsp;&amp;nbsp;(i == j&lt;span style=&quot;color: rgba(0, 0, 0, 0); font-family: monospace; font-size: 0px; text-align: start; text-wrap: nowrap;&quot;&gt;%3CmxGraphModel%3E%3Croot%3E%3CmxCell%20id%3D%220%22%2F%3E%3CmxCell%20id%3D%221%22%20parent%3D%220%22%2F%3E%3CmxCell%20id%3D%222%22%20value%3D%22or%20j%20in%20%5B0%2C%20Dk%20-%201%5D%5D%20%D1%80%D0%B0%D1%81%D0%BF%D0%BE%D0%BB%D0%BE%D0%B6%D0%B5%D0%BD%D0%B8%D0%B5%20%D0%BF%D1%80%D0%BE%D0%B1%D0%B5%D0%BB%D0%B0%22%20style%3D%22rounded%3D0%3BwhiteSpace%3Dwrap%3Bhtml%3D1%3B%22%20vertex%3D%221%22%20parent%3D%221%22%3E%3CmxGeometry%20x%3D%22220%22%20y%3D%22470%22%20width%3D%22190%22%20height%3D%2295%22%20as%3D%22geometry%22%2F%3E%3C%2FmxCell%3E%3C%2Froot%3E%3C%2FmxGraphModel%3E&lt;/span&gt;&lt;span style=&quot;color: rgba(0, 0, 0, 0); font-family: monospace; font-size: 0px; text-align: start; text-wrap: nowrap;&quot;&gt;%3CmxGraphModel%3E%3Croot%3E%3CmxCell%20id%3D%220%22%2F%3E%3CmxCell%20id%3D%221%22%20parent%3D%220%22%2F%3E%3CmxCell%20id%3D%222%22%20value%3D%22or%20j%20in%20%5B0%2C%20Dk%20-%201%5D%5D%20%D1%80%D0%B0%D1%81%D0%BF%D0%BE%D0%BB%D0%BE%D0%B6%D0%B5%D0%BD%D0%B8%D0%B5%20%D0%BF%D1%80%D0%BE%D0%B1%D0%B5%D0%BB%D0%B0%22%20style%3D%22rounded%3D0%3BwhiteSpace%3Dwrap%3Bhtml%3D1%3B%22%20vertex%3D%221%22%20parent%3D%221%22%3E%3CmxGeometry%20x%3D%22220%22%20y%3D%22470%22%20width%3D%22190%22%20height%3D%2295%22%20as%3D%22geometry%22%2F%3E%3C%2FmxCell%3E%3C%2Froot%3E%3C%2FmxGraphModel%3E&lt;/span&gt;" style="rounded=0;whiteSpace=wrap;html=1;" vertex="1" parent="1">
          <mxGeometry x="143" y="400" width="190" height="95" as="geometry" />
        </mxCell>
        <mxCell id="0tlU2G7sLi1nAekYESAy-6" value="or i + j == Dk - 1) отзеркаливает диагональ по центру&amp;nbsp;" style="rounded=0;whiteSpace=wrap;html=1;" vertex="1" parent="1">
          <mxGeometry x="313" y="570" width="190" height="95" as="geometry" />
        </mxCell>
        <mxCell id="0tlU2G7sLi1nAekYESAy-7" value="&lt;div&gt;for i in range(Dk)&lt;/div&gt;&lt;div&gt;] for j in range(Dk)]: располагает решетку или пробел в указанном значении&lt;/div&gt;" style="rounded=0;whiteSpace=wrap;html=1;" vertex="1" parent="1">
          <mxGeometry x="493" y="60" width="190" height="95" as="geometry" />
        </mxCell>
        <mxCell id="0tlU2G7sLi1nAekYESAy-8" value="" style="endArrow=classic;html=1;rounded=0;exitX=0.5;exitY=1;exitDx=0;exitDy=0;entryX=0.5;entryY=0;entryDx=0;entryDy=0;" edge="1" parent="1" source="0tlU2G7sLi1nAekYESAy-1" target="0tlU2G7sLi1nAekYESAy-2">
          <mxGeometry width="50" height="50" relative="1" as="geometry">
            <mxPoint x="523" y="390" as="sourcePoint" />
            <mxPoint x="573" y="340" as="targetPoint" />
          </mxGeometry>
        </mxCell>
        <mxCell id="0tlU2G7sLi1nAekYESAy-9" value="" style="endArrow=classic;html=1;rounded=0;exitX=0.5;exitY=1;exitDx=0;exitDy=0;entryX=0.5;entryY=0;entryDx=0;entryDy=0;" edge="1" parent="1" source="0tlU2G7sLi1nAekYESAy-2" target="0tlU2G7sLi1nAekYESAy-5">
          <mxGeometry width="50" height="50" relative="1" as="geometry">
            <mxPoint x="248" y="195" as="sourcePoint" />
            <mxPoint x="248" y="270" as="targetPoint" />
          </mxGeometry>
        </mxCell>
        <mxCell id="0tlU2G7sLi1nAekYESAy-10" value="" style="endArrow=classic;html=1;rounded=0;exitX=0.5;exitY=1;exitDx=0;exitDy=0;entryX=0.5;entryY=0;entryDx=0;entryDy=0;" edge="1" parent="1" source="0tlU2G7sLi1nAekYESAy-5" target="0tlU2G7sLi1nAekYESAy-6">
          <mxGeometry width="50" height="50" relative="1" as="geometry">
            <mxPoint x="248" y="365" as="sourcePoint" />
            <mxPoint x="208" y="520" as="targetPoint" />
          </mxGeometry>
        </mxCell>
        <mxCell id="0tlU2G7sLi1nAekYESAy-11" value="" style="endArrow=classic;html=1;rounded=0;exitX=0.5;exitY=0;exitDx=0;exitDy=0;entryX=0.545;entryY=0.995;entryDx=0;entryDy=0;entryPerimeter=0;" edge="1" parent="1" source="0tlU2G7sLi1nAekYESAy-6" target="0tlU2G7sLi1nAekYESAy-3">
          <mxGeometry width="50" height="50" relative="1" as="geometry">
            <mxPoint x="208" y="615" as="sourcePoint" />
            <mxPoint x="418" y="630" as="targetPoint" />
          </mxGeometry>
        </mxCell>
        <mxCell id="0tlU2G7sLi1nAekYESAy-13" value="" style="endArrow=classic;html=1;rounded=0;exitX=0.5;exitY=0;exitDx=0;exitDy=0;entryX=0.5;entryY=1;entryDx=0;entryDy=0;" edge="1" parent="1" source="0tlU2G7sLi1nAekYESAy-3" target="0tlU2G7sLi1nAekYESAy-4">
          <mxGeometry width="50" height="50" relative="1" as="geometry">
            <mxPoint x="418" y="630" as="sourcePoint" />
            <mxPoint x="571" y="385" as="targetPoint" />
          </mxGeometry>
        </mxCell>
        <mxCell id="0tlU2G7sLi1nAekYESAy-14" value="" style="endArrow=classic;html=1;rounded=0;exitX=0.5;exitY=0;exitDx=0;exitDy=0;entryX=0.5;entryY=1;entryDx=0;entryDy=0;" edge="1" parent="1" source="0tlU2G7sLi1nAekYESAy-4" target="0tlU2G7sLi1nAekYESAy-7">
          <mxGeometry width="50" height="50" relative="1" as="geometry">
            <mxPoint x="598" y="410" as="sourcePoint" />
            <mxPoint x="598" y="330" as="targetPoint" />
          </mxGeometry>
        </mxCell>
      </root>
    </mxGraphModel>
  </diagram>
</mxfile>
